<?xml version="1.0" encoding="UTF-8"?>
<svg version="1.1" xmlns="http://www.w3.org/2000/svg" width="90" height="90">
<path d="M0 0 C3.09734974 0.07869854 3.95361687 0.2519557 6.5625 2.125 C8.125 4.375 8.125 4.375 8.52197266 6.37036133 C9.61233635 9.99504809 13.35677358 11.33260378 16.5 13.0625 C17.22082764 13.46678223 17.94165527 13.87106445 18.68432617 14.28759766 C23.79748158 17.01226273 28.11571889 18.34156518 33.98828125 18.1796875 C36.125 18.375 36.125 18.375 37.89453125 19.6015625 C39.44275871 21.83297605 39.52699271 23.17572868 39.5 25.875 C39.51160156 27.03515625 39.51160156 27.03515625 39.5234375 28.21875 C39.03184224 30.87914788 38.29143864 31.78831254 36.125 33.375 C35.135 33.375 34.145 33.375 33.125 33.375 C33.125 39.315 33.125 45.255 33.125 51.375 C35.105 51.87 35.105 51.87 37.125 52.375 C39.53986943 54.78986943 39.4211925 55.50207789 39.4375 58.8125 C39.45425781 59.59496094 39.47101563 60.37742188 39.48828125 61.18359375 C39.125 63.375 39.125 63.375 37.8984375 65.15234375 C35.58261383 66.74893584 34.23282897 66.57705348 31.4375 66.5 C25.68165111 66.8549183 21.50948515 68.86412492 16.5625 71.625 C15.85971924 72.0080127 15.15693848 72.39102539 14.43286133 72.78564453 C11.25617813 74.64068166 9.45644951 75.73716859 7.73046875 79.05859375 C7.43076172 80.20521484 7.43076172 80.20521484 7.125 81.375 C6 83.1875 6 83.1875 4.125 84.375 C-0.94523535 85.01883941 -0.94523535 85.01883941 -3.875 84.375 C-6.6077424 81.78239824 -7.68811669 79.93564994 -8.875 76.375 C-11.31075827 74.68597055 -13.67590805 73.19699719 -16.25 71.75 C-16.97082764 71.34120605 -17.69165527 70.93241211 -18.43432617 70.51123047 C-23.55567976 67.7502916 -27.8379427 66.40766917 -33.73828125 66.5703125 C-35.875 66.375 -35.875 66.375 -37.64453125 65.1484375 C-39.19275871 62.91702395 -39.27699271 61.57427132 -39.25 58.875 C-39.25773437 58.1015625 -39.26546875 57.328125 -39.2734375 56.53125 C-38.78184224 53.87085212 -38.04143864 52.96168746 -35.875 51.375 C-34.885 51.375 -33.895 51.375 -32.875 51.375 C-32.875 45.435 -32.875 39.495 -32.875 33.375 C-34.195 33.045 -35.515 32.715 -36.875 32.375 C-39.28986943 29.96013057 -39.1711925 29.24792211 -39.1875 25.9375 C-39.20425781 25.15503906 -39.22101562 24.37257813 -39.23828125 23.56640625 C-38.875 21.375 -38.875 21.375 -37.6484375 19.59765625 C-35.33261383 18.00106416 -33.98282897 18.17294652 -31.1875 18.25 C-25.46356276 17.88985937 -21.30269566 15.92380729 -16.375 13.1875 C-15.68059814 12.81286621 -14.98619629 12.43823242 -14.27075195 12.05224609 C-9.81418878 9.45891899 -7.87963431 7.27145474 -5.875 2.375 C-3.875 0.375 -3.875 0.375 0 0 Z M-14.875 19.5 C-15.71933594 19.974375 -16.56367188 20.44875 -17.43359375 20.9375 C-22.39507231 23.86328266 -22.39507231 23.86328266 -25.375 28.6796875 C-25.54 29.56914063 -25.705 30.45859375 -25.875 31.375 C-26.205 31.705 -26.535 32.035 -26.875 32.375 C-27.12535974 35.68016934 -27.06021952 38.99896041 -27.0625 42.3125 C-27.07474609 43.24513672 -27.08699219 44.17777344 -27.09960938 45.13867188 C-27.10154297 46.03005859 -27.10347656 46.92144531 -27.10546875 47.83984375 C-27.10957764 48.660896 -27.11368652 49.48194824 -27.11791992 50.32788086 C-27.0623988 52.60017224 -27.0623988 52.60017224 -24.875 54.375 C-24.68635376 55.58482544 -24.68635376 55.58482544 -24.49389648 56.8190918 C-24.10526756 59.45232115 -24.10526756 59.45232115 -22.17602539 60.95239258 C-19.77501869 62.38767581 -17.37187982 63.80930613 -14.9375 65.1875 C-14.11958984 65.68958984 -13.30167969 66.19167969 -12.45898438 66.70898438 C-6.59611934 70.09406356 -1.63011796 71.72444144 5.125 70.375 C8.70569435 69.02624765 11.86676385 67.24315239 15.125 65.25 C15.96933594 64.775625 16.81367187 64.30125 17.68359375 63.8125 C22.64507231 60.88671734 22.64507231 60.88671734 25.625 56.0703125 C25.79 55.18085937 25.955 54.29140625 26.125 53.375 C26.455 53.045 26.785 52.715 27.125 52.375 C27.37535974 49.06983066 27.31021952 45.75103959 27.3125 42.4375 C27.33086914 41.03854492 27.33086914 41.03854492 27.34960938 39.61132812 C27.35154297 38.71994141 27.35347656 37.82855469 27.35546875 36.91015625 C27.35957764 36.089104 27.36368652 35.26805176 27.36791992 34.42211914 C27.3123988 32.14982776 27.3123988 32.14982776 25.125 30.375 C24.99923584 29.56844971 24.87347168 28.76189941 24.74389648 27.9309082 C24.35526756 25.29767885 24.35526756 25.29767885 22.42602539 23.79760742 C20.02501869 22.36232419 17.62187982 20.94069387 15.1875 19.5625 C13.96063477 18.80936523 13.96063477 18.80936523 12.70898438 18.04101562 C2.40208373 12.09005571 -4.99892878 13.45853646 -14.875 19.5 Z " fill="#000000" transform="translate(44.875,2.625)"/>
<path d="M0 0 C3.31053244 1.62024011 6.32269058 3.56578647 9.375 5.625 C10.62216797 6.40810547 10.62216797 6.40810547 11.89453125 7.20703125 C14.12746467 8.69198698 16.12073014 10.08612112 18 12 C18.5390625 15.3984375 18.5390625 15.3984375 18 18 C16.02 18 14.04 18 12 18 C12 21.96 12 25.92 12 30 C13.98 30 15.96 30 18 30 C19.125 33.75 19.125 33.75 18 36 C4.14 36 -9.72 36 -24 36 C-25 32 -25 32 -24 30 C-22.02 30 -20.04 30 -18 30 C-18 26.04 -18 22.08 -18 18 C-19.98 18 -21.96 18 -24 18 C-24.5390625 15.3984375 -24.5390625 15.3984375 -24 12 C-21.44333755 9.39625352 -18.45435765 7.55855015 -15.375 5.625 C-14.56675781 5.07972656 -13.75851563 4.53445312 -12.92578125 3.97265625 C-4.99723828 -1.17122772 -4.99723828 -1.17122772 0 0 Z M-12 18 C-12 21.96 -12 25.92 -12 30 C-10.02 30 -8.04 30 -6 30 C-6 26.04 -6 22.08 -6 18 C-7.98 18 -9.96 18 -12 18 Z M0 18 C0 21.96 0 25.92 0 30 C1.98 30 3.96 30 6 30 C6 26.04 6 22.08 6 18 C4.02 18 2.04 18 0 18 Z " fill="#000000" transform="translate(48,24)"/>
</svg>
