<?xml version="1.0" encoding="UTF-8"?>
<svg version="1.1" xmlns="http://www.w3.org/2000/svg" width="90" height="90">
<path d="M0 0 C0.87430664 -0.00630432 1.74861328 -0.01260864 2.64941406 -0.019104 C4.06818848 -0.01303131 4.06818848 -0.01303131 5.515625 -0.00683594 C6.48467773 -0.00874939 7.45373047 -0.01066284 8.45214844 -0.01263428 C10.50325785 -0.01399673 12.55437586 -0.01029612 14.60546875 -0.00195312 C17.75280039 0.00874547 20.8995612 -0.00184647 24.046875 -0.01464844 C26.0364596 -0.01332685 28.02604384 -0.01076448 30.015625 -0.00683594 C30.96147461 -0.0108844 31.90732422 -0.01493286 32.88183594 -0.019104 C33.75614258 -0.01279968 34.63044922 -0.00649536 35.53125 0 C36.68802246 0.00238678 36.68802246 0.00238678 37.86816406 0.00482178 C39.765625 0.25878906 39.765625 0.25878906 41.765625 2.25878906 C42.01959229 4.83959961 42.01959229 4.83959961 42.02441406 8.14550781 C42.03071838 9.38018799 42.03702271 10.61486816 42.04351807 11.88696289 C42.03993838 13.24007306 42.03583645 14.59318193 42.03125 15.94628906 C42.03259675 17.32869536 42.03453736 18.71110119 42.03704834 20.09350586 C42.03999918 22.99207057 42.03570336 25.8905121 42.02636719 28.7890625 C42.01497255 32.50839543 42.02153225 36.22743975 42.03351212 39.94676208 C42.04073188 42.80173933 42.03844228 45.65664791 42.03325653 48.5116272 C42.03192035 49.88318923 42.03356666 51.25475745 42.03821564 52.62631226 C42.04328248 54.54156376 42.03419331 56.45683707 42.02441406 58.37207031 C42.02282288 59.46302002 42.02123169 60.55396973 42.01959229 61.67797852 C41.765625 64.25878906 41.765625 64.25878906 39.765625 66.25878906 C37.86816406 66.51275635 37.86816406 66.51275635 35.53125 66.51757812 C34.65694336 66.52388245 33.78263672 66.53018677 32.88183594 66.53668213 C31.46306152 66.53060944 31.46306152 66.53060944 30.015625 66.52441406 C29.04657227 66.52632751 28.07751953 66.52824097 27.07910156 66.5302124 C25.02799215 66.53157485 22.97687414 66.52787424 20.92578125 66.51953125 C17.77844961 66.50883266 14.6316888 66.5194246 11.484375 66.53222656 C9.4947904 66.53090498 7.50520616 66.52834261 5.515625 66.52441406 C4.56977539 66.52846252 3.62392578 66.53251099 2.64941406 66.53668213 C1.3379541 66.52722565 1.3379541 66.52722565 0 66.51757812 C-0.77118164 66.51598694 -1.54236328 66.51439575 -2.33691406 66.51275635 C-4.234375 66.25878906 -4.234375 66.25878906 -6.234375 64.25878906 C-6.48834229 61.67797852 -6.48834229 61.67797852 -6.49316406 58.37207031 C-6.49946838 57.13739014 -6.50577271 55.90270996 -6.51226807 54.63061523 C-6.50868838 53.27750507 -6.50458645 51.92439619 -6.5 50.57128906 C-6.50134675 49.18888277 -6.50328736 47.80647694 -6.50579834 46.42407227 C-6.50874918 43.52550756 -6.50445336 40.62706603 -6.49511719 37.72851562 C-6.48372255 34.00918269 -6.49028225 30.29013838 -6.50226212 26.57081604 C-6.50948188 23.7158388 -6.50719228 20.86093022 -6.50200653 18.00595093 C-6.50067035 16.6343889 -6.50231666 15.26282067 -6.50696564 13.89126587 C-6.51203248 11.97601436 -6.50294331 10.06074106 -6.49316406 8.14550781 C-6.49157288 7.05455811 -6.48998169 5.9636084 -6.48834229 4.83959961 C-6.04835861 0.36849416 -4.00837049 0.00827051 0 0 Z M8.765625 23.25878906 C8.09407816 25.97537163 8.09407816 25.97537163 8.765625 28.25878906 C11.7375635 27.13427179 14.10003187 26.03585115 16.765625 24.25878906 C16.765625 32.17878906 16.765625 40.09878906 16.765625 48.25878906 C19.075625 48.25878906 21.385625 48.25878906 23.765625 48.25878906 C23.765625 38.35878906 23.765625 28.45878906 23.765625 18.25878906 C16.87883774 18.25878906 13.66217843 18.64880237 8.765625 23.25878906 Z " fill="#000000" transform="translate(18.234375,11.7412109375)"/>
<path d="M0 0 C9.10700539 1.1016305 9.10700539 1.1016305 12.8125 2.25 C13.54082031 2.46140625 14.26914063 2.6728125 15.01953125 2.890625 C17.79310248 4.44426253 18.62955584 6.15656143 20 9 C19.90087891 11.51000977 19.90087891 11.51000977 19.2265625 14.19140625 C18.85978394 15.71290283 18.85978394 15.71290283 18.4855957 17.26513672 C18.20159912 18.3532666 17.91760254 19.44139648 17.625 20.5625 C17.34551514 21.69187988 17.06603027 22.82125977 16.77807617 23.98486328 C16.17868104 26.39867501 15.57089553 28.81041576 14.95556641 31.22021484 C13.98156473 35.07292151 13.05415759 38.93436703 12.13671875 42.80078125 C11.52954639 45.32573756 10.92149664 47.85048307 10.3125 50.375 C9.88541748 52.17432983 9.88541748 52.17432983 9.44970703 54.01000977 C9.17368652 55.12819092 8.89766602 56.24637207 8.61328125 57.3984375 C8.25423706 58.87836182 8.25423706 58.87836182 7.88793945 60.38818359 C6.94907754 63.14978511 6.03985401 64.91522337 4 67 C0.3125 67.25 0.3125 67.25 -3 67 C-2.51104248 65.79480713 -2.02208496 64.58961426 -1.51831055 63.34790039 C0.55932646 57.07956426 0.37587669 50.97798275 0.29296875 44.43359375 C0.28872391 43.15895767 0.28447906 41.88432159 0.28010559 40.57106018 C0.26623423 37.21224507 0.23936858 33.85406301 0.20599365 30.49542236 C0.17508729 27.05624812 0.16155672 23.617008 0.14648438 20.17773438 C0.11352491 13.45165074 0.06340767 6.72586184 0 0 Z " fill="#000000" transform="translate(65,14)"/>
</svg>
