<?xml version="1.0" encoding="UTF-8"?>
<svg version="1.1" xmlns="http://www.w3.org/2000/svg" width="90" height="90">
<path d="M0 0 C1.24597795 0.57133676 2.49271945 1.14101143 3.74023438 1.70898438 C12.71105708 5.83605708 12.71105708 5.83605708 13.9375 7.0625 C13.97842937 9.39547433 13.97991723 11.72955225 13.9375 14.0625 C14.47640869 13.82015625 15.01531738 13.5778125 15.57055664 13.328125 C18.04128778 12.22613706 20.52035096 11.14426288 23 10.0625 C23.84755859 9.6809375 24.69511719 9.299375 25.56835938 8.90625 C30.61114879 6.72558431 34.43281717 5.47767314 39.9375 6.0625 C40.9375 7.0625 40.9375 7.0625 41 10.625 C40.979375 11.759375 40.95875 12.89375 40.9375 14.0625 C25.21484375 23.046875 25.21484375 23.046875 22.45654297 24.60742188 C20.93150947 25.48832899 19.42018816 26.39448914 17.93798828 27.34570312 C13.67584528 30.04811865 10.941725 30.79408213 5.9375 30.0625 C1.65856027 28.60456836 -2.47514261 26.85102328 -6.625 25.0625 C-8.83048622 24.11528015 -11.04002134 23.17742037 -13.25390625 22.25 C-14.71098999 21.62158203 -14.71098999 21.62158203 -16.19750977 20.98046875 C-21.23773177 19.36553609 -25.06972886 19.71011241 -29.75 22.0625 C-32.57606368 23.46821043 -33.84564926 24.0625 -37.0625 24.0625 C-37.0625 15.8125 -37.0625 7.5625 -37.0625 -0.9375 C-22.06286852 -7.3203219 -14.71393813 -6.96872554 0 0 Z " fill="#000000" transform="translate(43.0625,50.9375)"/>
<path d="M0 0 C4.8404001 2.60960701 8.06650639 6.09014417 9.796875 11.28125 C10.46163179 18.73524418 10.44121145 24.25616487 5.796875 30.28125 C0.39692227 35.28608423 -4.05234248 35.63143872 -11.1875 35.5625 C-16.73027207 35.04555753 -19.78938645 32.80659949 -23.578125 28.71875 C-27.13749657 23.37969265 -26.78151279 17.4828524 -26.203125 11.28125 C-24.60392 6.37933903 -21.45575292 3.11633528 -17.203125 0.28125 C-11.84906913 -1.50343529 -5.40672306 -1.76389547 0 0 Z M-10.203125 9.28125 C-11.56851438 12.01202876 -11.33544326 14.23685367 -11.328125 17.28125 C-11.33070312 18.35375 -11.33328125 19.42625 -11.3359375 20.53125 C-11.3903591 23.24307052 -11.3903591 23.24307052 -10.203125 25.28125 C-8.883125 25.28125 -7.563125 25.28125 -6.203125 25.28125 C-4.83773562 22.55047124 -5.07080674 20.32564633 -5.078125 17.28125 C-5.07425781 15.6725 -5.07425781 15.6725 -5.0703125 14.03125 C-5.0158909 11.31942948 -5.0158909 11.31942948 -6.203125 9.28125 C-7.523125 9.28125 -8.843125 9.28125 -10.203125 9.28125 Z " fill="#000000" transform="translate(59.203125,6.71875)"/>
<path d="M0 0 C4.87664009 -0.34833144 7.77050005 0.58314288 12 3 C12 4.98 12 6.96 12 9 C7.12335991 9.34833144 4.22949995 8.41685712 0 6 C0 4.02 0 2.04 0 0 Z " fill="#000000" transform="translate(72,30)"/>
<path d="M0 0 C0 1.98 0 3.96 0 6 C-4.22949995 8.41685712 -7.12335991 9.34833144 -12 9 C-12 7.02 -12 5.04 -12 3 C-7.77050005 0.58314288 -4.87664009 -0.34833144 0 0 Z " fill="#000000" transform="translate(30,30)"/>
<path d="M0 0 C0 1.98 0 3.96 0 6 C-4.22949995 8.41685712 -7.12335991 9.34833144 -12 9 C-12 7.02 -12 5.04 -12 3 C-7.77050005 0.58314288 -4.87664009 -0.34833144 0 0 Z " fill="#000000" transform="translate(84,3)"/>
<path d="M0 0 C4.87664009 -0.34833144 7.77050005 0.58314288 12 3 C12 4.98 12 6.96 12 9 C7.12335991 9.34833144 4.22949995 8.41685712 0 6 C0 4.02 0 2.04 0 0 Z " fill="#000000" transform="translate(18,3)"/>
<path d="M0 0 C3.96 0 7.92 0 12 0 C12 1.98 12 3.96 12 6 C8.04 6 4.08 6 0 6 C0 4.02 0 2.04 0 0 Z " fill="#000000" transform="translate(75,18)"/>
<path d="M0 0 C3.96 0 7.92 0 12 0 C12 1.98 12 3.96 12 6 C8.04 6 4.08 6 0 6 C0 4.02 0 2.04 0 0 Z " fill="#000000" transform="translate(15,18)"/>
</svg>
