<?xml version="1.0" encoding="UTF-8"?>
<svg version="1.1" xmlns="http://www.w3.org/2000/svg" width="90" height="90">
<path d="M0 0 C5.16095736 5.27825185 7.61266689 10.60921526 9.0625 17.8125 C10.32271777 23.63915394 12.76194335 26.68833984 17.10546875 30.6796875 C19.27005222 33.48696202 19.05024395 35.35723358 18.75 38.8125 C16.11 39.8025 13.47 40.7925 10.75 41.8125 C10.69392578 43.27623047 10.69392578 43.27623047 10.63671875 44.76953125 C10.57097656 46.04183594 10.50523438 47.31414063 10.4375 48.625 C10.35048828 50.52185547 10.35048828 50.52185547 10.26171875 52.45703125 C9.75 55.8125 9.75 55.8125 8.6171875 57.625 C5.00825797 59.92021878 0.75497692 60.83108547 -3.31640625 62.04296875 C-7.28836255 63.96842504 -7.28836255 63.96842504 -8.25 71.8125 C-18.15 71.8125 -28.05 71.8125 -38.25 71.8125 C-38.394375 69.399375 -38.53875 66.98625 -38.6875 64.5 C-39.41136713 56.94497193 -41.86971705 52.93237277 -47.05078125 47.30078125 C-53.36261144 40.15933217 -54.04454152 31.84520687 -53.625 22.65234375 C-52.68556992 13.03297117 -48.42764042 6.20804252 -41.25 -0.1875 C-28.30047976 -9.09694003 -12.80487751 -8.61866755 0 0 Z M-21.25 5.8125 C-21.58 7.1325 -21.91 8.4525 -22.25 9.8125 C-24.89 9.4825 -27.53 9.1525 -30.25 8.8125 C-30.641875 9.76125 -31.03375 10.71 -31.4375 11.6875 C-33.44793856 15.15377338 -34.47699642 15.7927693 -38.25 16.8125 C-37.92 19.4525 -37.59 22.0925 -37.25 24.8125 C-38.57 25.1425 -39.89 25.4725 -41.25 25.8125 C-41.25 26.4725 -41.25 27.1325 -41.25 27.8125 C-39.93 28.1425 -38.61 28.4725 -37.25 28.8125 C-37.58 31.4525 -37.91 34.0925 -38.25 36.8125 C-37.30125 37.204375 -36.3525 37.59625 -35.375 38 C-31.90872662 40.01043856 -31.2697307 41.03949642 -30.25 44.8125 C-27.61 44.4825 -24.97 44.1525 -22.25 43.8125 C-21.92 45.1325 -21.59 46.4525 -21.25 47.8125 C-20.59 47.8125 -19.93 47.8125 -19.25 47.8125 C-18.92 46.4925 -18.59 45.1725 -18.25 43.8125 C-15.61 44.1425 -12.97 44.4725 -10.25 44.8125 C-9.858125 43.86375 -9.46625 42.915 -9.0625 41.9375 C-7.05206144 38.47122662 -6.02300358 37.8322307 -2.25 36.8125 C-2.745 32.8525 -2.745 32.8525 -3.25 28.8125 C-1.93 28.4825 -0.61 28.1525 0.75 27.8125 C0.75 27.1525 0.75 26.4925 0.75 25.8125 C-0.57 25.4825 -1.89 25.1525 -3.25 24.8125 C-2.92 22.1725 -2.59 19.5325 -2.25 16.8125 C-3.19875 16.420625 -4.1475 16.02875 -5.125 15.625 C-8.59127338 13.61456144 -9.2302693 12.58550358 -10.25 8.8125 C-12.89 9.1425 -15.53 9.4725 -18.25 9.8125 C-18.58 8.4925 -18.91 7.1725 -19.25 5.8125 C-19.91 5.8125 -20.57 5.8125 -21.25 5.8125 Z " fill="#000000" transform="translate(62.25,12.1875)"/>
<path d="M0 0 C3.12578143 1.6720747 5.39281175 3.7856235 7 7 C7.51512617 11.09157355 7.94367269 15.23589546 5.953125 18.95703125 C3.55501226 21.85592636 1.60351712 23.79811835 -2.171875 24.2734375 C-9.98876369 24.58137554 -9.98876369 24.58137554 -13.5625 21.625 C-17.3057723 17.59378368 -17.39037018 14.90519941 -17.359375 9.55078125 C-16.78039966 5.44131496 -15.00085071 3.78650423 -12 1 C-8.27533151 -0.86233425 -4.05504687 -0.57130829 0 0 Z M-10 9 C-10.33333333 12 -10.33333333 12 -10 15 C-8.11499729 17.31563087 -8.11499729 17.31563087 -5 17.25 C-1.88500271 17.31563087 -1.88500271 17.31563087 0 15 C0.33333333 12 0.33333333 12 0 9 C-1.88500271 6.68436913 -1.88500271 6.68436913 -5 6.75 C-8.11499729 6.68436913 -8.11499729 6.68436913 -10 9 Z " fill="#000000" transform="translate(47,27)"/>
</svg>
