<?xml version="1.0" encoding="UTF-8"?>
<svg version="1.1" xmlns="http://www.w3.org/2000/svg" width="90" height="90">
<path d="M0 0 C5.22484658 3.17625565 5.22484658 3.17625565 6.609375 5.9453125 C7.98129135 19.9944306 7.98129135 19.9944306 3.546875 26.1328125 C2.97839844 26.78636719 2.40992187 27.43992187 1.82421875 28.11328125 C0.41417413 29.86389623 0.41417413 29.86389623 0.64453125 31.99609375 C1.95795529 34.64952936 3.56873694 35.46595363 6.109375 36.9453125 C8.578125 38.3828125 8.578125 38.3828125 10.609375 39.9453125 C11.104375 41.9253125 11.104375 41.9253125 11.609375 43.9453125 C-0.270625 43.9453125 -12.150625 43.9453125 -24.390625 43.9453125 C-22.38073917 38.92059792 -22.01764729 38.24476905 -17.765625 35.6328125 C-16.94835937 35.12105469 -16.13109375 34.60929687 -15.2890625 34.08203125 C-14.66257812 33.70691406 -14.03609375 33.33179688 -13.390625 32.9453125 C-13.99168066 29.83075137 -14.99319723 27.96050745 -16.890625 25.4453125 C-20.50251194 19.82798834 -21.25496312 13.25183928 -19.9453125 6.7265625 C-18.91094707 3.92069767 -17.49470054 2.04308043 -15.328125 0.0078125 C-10.19359948 -1.84935631 -5.07715381 -2.2399208 0 0 Z " fill="#000000" transform="translate(33.390625,34.0546875)"/>
<path d="M0 0 C5.22484658 3.17625565 5.22484658 3.17625565 6.609375 5.9453125 C7.98129135 19.9944306 7.98129135 19.9944306 3.546875 26.1328125 C2.97839844 26.78636719 2.40992187 27.43992187 1.82421875 28.11328125 C0.41417413 29.86389623 0.41417413 29.86389623 0.64453125 31.99609375 C1.95795529 34.64952936 3.56873694 35.46595363 6.109375 36.9453125 C10.47196062 39.48555223 10.47196062 39.48555223 11.23632812 42.04296875 C11.35943359 42.67074219 11.48253906 43.29851562 11.609375 43.9453125 C7.37357247 44.01939156 3.13811159 44.07387946 -1.09814453 44.11010742 C-2.53961758 44.12520733 -3.98104459 44.14568908 -5.42236328 44.17163086 C-7.49262843 44.2079638 -9.56228707 44.22502579 -11.6328125 44.23828125 C-12.8791748 44.2539917 -14.12553711 44.26970215 -15.40966797 44.28588867 C-16.8852417 44.11730347 -16.8852417 44.11730347 -18.390625 43.9453125 C-20.390625 40.9453125 -20.390625 40.9453125 -20.390625 39.0078125 C-18.86904002 35.86954347 -16.3214334 34.69132602 -13.390625 32.9453125 C-13.99168066 29.83075137 -14.99319723 27.96050745 -16.890625 25.4453125 C-20.50251194 19.82798834 -21.25496312 13.25183928 -19.9453125 6.7265625 C-18.91094707 3.92069767 -17.49470054 2.04308043 -15.328125 0.0078125 C-10.19359948 -1.84935631 -5.07715381 -2.2399208 0 0 Z " fill="#000000" transform="translate(69.390625,34.0546875)"/>
<path d="M0 0 C3.12578143 1.6720747 5.39281175 3.7856235 7 7 C7.62510019 11.88471148 7.70093372 16.68210317 5.375 21.125 C3.28985749 23.65609784 1.99174398 24.00169455 -1.2734375 24.671875 C-10.10915804 25.1534866 -10.10915804 25.1534866 -14.0234375 22.765625 C-17.25652503 18.84106788 -17.74192799 14.33452386 -17.5 9.375 C-16.67677596 5.46468579 -14.90418932 3.69674722 -12 1 C-8.27533151 -0.86233425 -4.05504687 -0.57130829 0 0 Z " fill="#000000" transform="translate(50,0)"/>
<path d="M0 0 C3.96 0 7.92 0 12 0 C11 5 11 5 10 6 C4.26388889 6.27314815 4.26388889 6.27314815 2 6 C1.34 5.34 0.68 4.68 0 4 C0 2.68 0 1.36 0 0 Z " fill="#000000" transform="translate(39,27)"/>
<path d="M0 0 C1.98 0 3.96 0 6 0 C6 1.98 6 3.96 6 6 C4.02 6 2.04 6 0 6 C0 4.02 0 2.04 0 0 Z " fill="#000000" transform="translate(63,18)"/>
<path d="M0 0 C1.98 0 3.96 0 6 0 C6 1.98 6 3.96 6 6 C4.02 6 2.04 6 0 6 C0 4.02 0 2.04 0 0 Z " fill="#000000" transform="translate(21,18)"/>
<path d="M0 0 C1.98 0 3.96 0 6 0 C6 1.98 6 3.96 6 6 C4.02 6 2.04 6 0 6 C0 4.02 0 2.04 0 0 Z " fill="#000000" transform="translate(69,9)"/>
<path d="M0 0 C1.98 0 3.96 0 6 0 C6 1.98 6 3.96 6 6 C4.02 6 2.04 6 0 6 C0 4.02 0 2.04 0 0 Z " fill="#000000" transform="translate(15,9)"/>
<path d="M0 0 C1.98 0 3.96 0 6 0 C6 1.98 6 3.96 6 6 C4.02 6 2.04 6 0 6 C0 4.02 0 2.04 0 0 Z " fill="#000000" transform="translate(63,0)"/>
<path d="M0 0 C1.98 0 3.96 0 6 0 C6 1.98 6 3.96 6 6 C4.02 6 2.04 6 0 6 C0 4.02 0 2.04 0 0 Z " fill="#000000" transform="translate(21,0)"/>
</svg>
